<svg width="49" height="18" viewBox="0 0 49 18" fill="none" xmlns="http://www.w3.org/2000/svg">
<g id="Geld">
<path d="M8.16707 8.78874H15.7556V15.2314C14.2206 16.7232 11.8857 17.5015 9.16158 17.5015C3.86473 17.5015 0.535278 14.4531 0.535278 9.54543C0.535278 4.63774 3.86473 1.56773 8.83728 1.56773C11.6046 1.56773 13.7017 2.4109 15.1719 3.77295L13.2477 5.93493C12.21 5.0269 10.6317 4.44316 8.8589 4.44316C5.76727 4.44316 3.71339 6.41056 3.71339 9.54543C3.71339 12.7884 5.85375 14.6909 9.26968 14.6909C10.6317 14.6909 11.8641 14.4531 12.8802 13.6964V11.4696H8.16707V8.78874Z" fill="black"/>
<path d="M29.4901 11.2966C29.4901 11.4912 29.4901 11.9452 29.4685 12.1831H20.3017C20.626 13.9343 21.8367 14.9288 23.7825 14.9288C25.1661 14.9288 26.3985 14.4099 27.1984 13.4154L29.0793 15.0152C27.9983 16.507 26.2688 17.4367 23.5663 17.4367C19.6099 17.4367 17.2749 15.0152 17.2749 11.2534C17.2749 7.51317 19.8044 5.07014 23.4149 5.07014C27.4795 5.07014 29.4901 7.66451 29.4901 11.2966ZM23.4149 7.55641C21.9016 7.55641 20.6908 8.31311 20.3233 10.0211H26.5714C26.3985 8.72388 25.4688 7.55641 23.4149 7.55641Z" fill="black"/>
<path d="M31.4359 17.1988V0.811035H34.4194V17.1988H31.4359Z" fill="black"/>
<path d="M42.3221 17.4583C38.863 17.4583 36.6145 15.0585 36.6145 11.275C36.6145 7.49155 38.8846 5.11338 42.1924 5.11338C43.4031 5.11338 44.8517 5.45929 45.8245 6.41056V0.811035H48.7648V17.1988H45.8678V16.053C44.9381 17.1772 43.468 17.4583 42.3221 17.4583ZM42.9707 14.7774C44.095 14.7774 45.2624 14.3234 45.8678 13.2208V9.30762C45.2624 8.33473 44.0517 7.79423 42.9059 7.79423C41.0249 7.79423 39.6845 9.04818 39.6845 11.275C39.6845 13.4586 40.9817 14.7774 42.9707 14.7774Z" fill="black"/>
</g>
</svg>
